<?xml version="1.0" encoding="UTF-8"?>
<svg width="24px" height="24px" viewBox="0 0 24 24" version="1.1" xmlns="http://www.w3.org/2000/svg">
    <g stroke="none" stroke-width="1" fill="none" fill-rule="evenodd">
        <path d="M12,2.163c3.204,0 3.584,0.012 4.85,0.07 1.17,0.053 1.805,0.249 2.227,0.415 0.562,0.217 0.96,0.477 1.382,0.896 0.419,0.42 0.679,0.819 0.896,1.381 0.164,0.422 0.36,1.057 0.413,2.227 0.058,1.266 0.07,1.646 0.07,4.85 0,3.204 -0.012,3.584 -0.07,4.85 -0.053,1.17 -0.249,1.805 -0.415,2.227 -0.217,0.562 -0.477,0.96 -0.896,1.382 -0.42,0.419 -0.819,0.679 -1.381,0.896 -0.422,0.164 -1.057,0.36 -2.227,0.413 -1.266,0.058 -1.646,0.07 -4.85,0.07 -3.204,0 -3.584,-0.012 -4.85,-0.07 -1.17,-0.053 -1.805,-0.249 -2.227,-0.415 -0.562,-0.217 -0.96,-0.477 -1.382,-0.896 -0.419,-0.42 -0.679,-0.819 -0.896,-1.381 -0.164,-0.422 -0.36,-1.057 -0.413,-2.227 -0.058,-1.266 -0.07,-1.646 -0.07,-4.85 0,-3.204 0.012,-3.584 0.07,-4.85 0.053,-1.17 0.249,-1.805 0.415,-2.227 0.217,-0.562 0.477,-0.96 0.896,-1.382 0.42,-0.419 0.819,-0.679 1.381,-0.896 0.422,-0.164 1.057,-0.36 2.227,-0.413 1.266,-0.058 1.646,-0.07 4.85,-0.07zM12,0C8.741,0 8.333,0.014 7.053,0.072 5.775,0.132 4.905,0.333 4.14,0.63 3.354,0.935 2.68,1.34 2.006,2.006 1.34,2.68 0.935,3.354 0.63,4.14 0.333,4.905 0.132,5.775 0.072,7.053 0.014,8.333 0,8.741 0,12c0,3.259 0.014,3.668 0.072,4.948 0.06,1.277 0.261,2.148 0.558,2.913 0.305,0.785 0.71,1.459 1.376,2.133 0.674,0.666 1.348,1.071 2.133,1.376 0.765,0.296 1.636,0.499 2.913,0.558C8.333,23.986 8.741,24 12,24c3.259,0 3.668,-0.014 4.948,-0.072 1.277,-0.06 2.148,-0.261 2.913,-0.558 0.785,-0.305 1.459,-0.71 2.133,-1.376 0.666,-0.674 1.071,-1.348 1.376,-2.133 0.296,-0.765 0.499,-1.636 0.558,-2.913C23.986,15.668 24,15.259 24,12c0,-3.259 -0.014,-3.667 -0.072,-4.947 -0.06,-1.277 -0.261,-2.149 -0.558,-2.913 -0.305,-0.785 -0.71,-1.459 -1.376,-2.133 -0.674,-0.666 -1.348,-1.071 -2.133,-1.376 -0.765,-0.297 -1.636,-0.499 -2.913,-0.558C15.668,0.014 15.259,0 12,0zM12,5.838c-3.403,0 -6.162,2.759 -6.162,6.162 0,3.403 2.759,6.162 6.162,6.162 3.403,0 6.162,-2.759 6.162,-6.162 0,-3.403 -2.759,-6.162 -6.162,-6.162zM12,16c-2.209,0 -4,-1.791 -4,-4 0,-2.209 1.791,-4 4,-4 2.209,0 4,1.791 4,4 0,2.209 -1.791,4 -4,4zM18.406,5.594c-0.796,0 -1.441,0.645 -1.441,1.44s0.645,1.44 1.441,1.44c0.795,0 1.44,-0.645 1.44,-1.44s-0.645,-1.44 -1.44,-1.44z" fill="#000000" fill-rule="nonzero"/>
    </g>
</svg> 