<?xml version="1.0" encoding="UTF-8"?>
<svg width="24px" height="24px" viewBox="0 0 24 24" version="1.1" xmlns="http://www.w3.org/2000/svg">
    <g stroke="none" stroke-width="1" fill="none" fill-rule="evenodd">
        <path d="M19,3C20.1045695,3 21,3.8954305 21,5L21,19C21,20.1045695 20.1045695,21 19,21L5,21C3.8954305,21 3,20.1045695 3,19L3,5C3,3.8954305 3.8954305,3 5,3L19,3z M18.5,18.5L18.5,13.2C18.5,12.3353852 18.0863852,11.7 17.4,11.7C16.8295695,11.7 16.5,12.1788462 16.5,12.7C16.5,13.2211538 16.8295695,13.7 17.4,13.7C18.0863852,13.7 18.5,13.0646148 18.5,13.2L18.5,18.5L18.5,18.5z M11.397,18.5L11.397,13.2C11.397,12.3353852 10.9833852,11.7 10.297,11.7C9.72656954,11.7 9.397,12.1788462 9.397,12.7C9.397,13.2211538 9.72656954,13.7 10.297,13.7C10.9833852,13.7 11.397,13.0646148 11.397,13.2L11.397,18.5L11.397,18.5z M7.5,9C8.32842712,9 9,8.32842712 9,7.5C9,6.67157288 8.32842712,6 7.5,6C6.67157288,6 6,6.67157288 6,7.5C6,8.32842712 6.67157288,9 7.5,9z M9,18.5L9,13.2C9,12.3353852 8.58638515,11.7 7.9,11.7C7.32956954,11.7 7,12.1788462 7,12.7C7,13.2211538 7.32956954,13.7 7.9,13.7C8.58638515,13.7 9,13.0646148 9,13.2L9,18.5L9,18.5z" fill="#000000" fill-rule="nonzero"/>
    </g>
</svg> 